custom-analysis
version=1
nRows=6
nColumns=98
inDegrees=no

This file contains tibia displacement and acting force.

Units are S.I. units (seconds, meters, Newtons, ...)
Angles are in degrees.

endheader
time	APT	SIT	knee_angle	aACL_R_force	pACL_R_force	aPCL_R_force	pPCL_R_force	aMCL_R_force	mMCL_R_force	pMCL_R_force	aLCL_R_force	mLCL_R_force	pLCL_R_force	aPCL_L_force	pPCL_L_force	aMCL_L_force	aLCL_L_force	aACL_R_length	pACL_R_length	aPCL_R_length	pPCL_R_length	aMCL_R_length	mMCL_R_length	pMCL_R_length	aLCL_R_length	mLCL_R_length	pLCL_R_length	aPCL_L_length	pPCL_L_length	aMCL_L_length	aLCL_L_length	aACL_R_strain	pACL_R_strain	aPCL_R_strain	pPCL_R_strain	aMCL_R_strain	mMCL_R_strain	pMCL_R_strain	aLCL_R_strain	mLCL_R_strain	pLCL_R_strain	aPCL_L_strain	pPCL_L_strain	aMCL_L_strain	aLCL_L_strain	femur_lat_meniscii_r.femur_lat_r.force.X	femur_lat_meniscii_r.femur_lat_r.force.Y	femur_lat_meniscii_r.femur_lat_r.force.Z	femur_lat_meniscii_r.femur_lat_r.torque.X	femur_lat_meniscii_r.femur_lat_r.torque.Y	femur_lat_meniscii_r.femur_lat_r.torque.Z	femur_lat_meniscii_r.meniscus_lat_r.force.X	femur_lat_meniscii_r.meniscus_lat_r.force.Y	femur_lat_meniscii_r.meniscus_lat_r.force.Z	femur_lat_meniscii_r.meniscus_lat_r.torque.X	femur_lat_meniscii_r.meniscus_lat_r.torque.Y	femur_lat_meniscii_r.meniscus_lat_r.torque.Z	femur_med_meniscii_r.femur_med_r.force.X	femur_med_meniscii_r.femur_med_r.force.Y	femur_med_meniscii_r.femur_med_r.force.Z	femur_med_meniscii_r.femur_med_r.torque.X	femur_med_meniscii_r.femur_med_r.torque.Y	femur_med_meniscii_r.femur_med_r.torque.Z	femur_med_meniscii_r.meniscus_med_r.force.X	femur_med_meniscii_r.meniscus_med_r.force.Y	femur_med_meniscii_r.meniscus_med_r.force.Z	femur_med_meniscii_r.meniscus_med_r.torque.X	femur_med_meniscii_r.meniscus_med_r.torque.Y	femur_med_meniscii_r.meniscus_med_r.torque.Z	femur_med_tibia_r.tibia_upper_r.force.X	femur_med_tibia_r.tibia_upper_r.force.Y	femur_med_tibia_r.tibia_upper_r.force.Z	femur_med_tibia_r.tibia_upper_r.torque.X	femur_med_tibia_r.tibia_upper_r.torque.Y	femur_med_tibia_r.tibia_upper_r.torque.Z	femur_med_tibia_r.femur_med_r.force.X	femur_med_tibia_r.femur_med_r.force.Y	femur_med_tibia_r.femur_med_r.force.Z	femur_med_tibia_r.femur_med_r.torque.X	femur_med_tibia_r.femur_med_r.torque.Y	femur_med_tibia_r.femur_med_r.torque.Z	femur_lat_tibia_r.tibia_upper_r.force.X	femur_lat_tibia_r.tibia_upper_r.force.Y	femur_lat_tibia_r.tibia_upper_r.force.Z	femur_lat_tibia_r.tibia_upper_r.torque.X	femur_lat_tibia_r.tibia_upper_r.torque.Y	femur_lat_tibia_r.tibia_upper_r.torque.Z	femur_lat_tibia_r.femur_lat_r.force.X	femur_lat_tibia_r.femur_lat_r.force.Y	femur_lat_tibia_r.femur_lat_r.force.Z	femur_lat_tibia_r.femur_lat_r.torque.X	femur_lat_tibia_r.femur_lat_r.torque.Y	femur_lat_tibia_r.femur_lat_r.torque.Z	femur_lat_meniscii_force_r	femur_med_meniscii_force_r	femur_lat_tibia_force_r	femur_med_tibia_force_r
      0.06800945	      0.00801151	      0.00369294	     12.63308811	    100.93016424	     95.85335609	      0.00000000	      0.00000000	      0.00000000	    -13.74197811	    -25.12288466	      0.00000000	      0.00000000	      0.00000000	      0.00000000	      0.00000000	      0.00000001	      0.00000000	      0.03434936	      0.02779897	      0.02694895	      0.02725140	      0.05620824	      0.06010380	      0.06132926	      0.05257734	      0.05065468	      0.04817434	      0.01525851	      0.01651186	      0.06550154	      0.04489616	      0.10784720	      0.10935394	     -0.13334340	     -0.08821002	     -0.06361744	      0.00518955	      0.04429339	     -0.06073655	     -0.10056923	     -0.07963590	      0.00000079	     -0.32847694	      0.00000060	     -0.00000086	      9.43987011	     33.22812899	      2.18723803	     -1.69426099	      0.23153278	      4.04035548	     -9.43987011	    -33.22812899	     -2.18723803	      0.96474969	     -0.27928538	     -0.16641903	      3.04440937	     14.12511094	      0.34584279	      0.14925431	     -0.05529746	      1.23150888	     -3.04440937	    -14.12511094	     -0.34584279	     -0.23562915	      0.04267852	      0.04422781	      4.19049892	   -713.92887532	    116.00948647	    -16.00201823	      0.22563357	      3.08288245	     -4.19049892	    713.92887532	   -116.00948647	     62.78278924	      0.68551012	      0.83453011	    -80.61860067	   -723.92387057	   -161.64364267	     24.22230855	     -2.50519693	     -0.80554355	     80.61860067	    723.92387057	    161.64364267	    -83.79154935	      0.99139925	     37.29484194	     34.61219026	     14.45360836	    746.11915695	    723.30505338
      0.06918975	      0.00819552	      0.00379090	     13.01432789	    103.27997600	     97.27597442	      0.00000000	      0.00000000	      0.00000000	    -13.27524837	    -25.75829877	      0.00000000	      0.00000000	      0.00000000	      0.00000000	      0.00000000	      0.00000001	      0.00000000	      0.03439223	      0.02781892	      0.02695067	      0.02723261	      0.05622766	      0.06008171	      0.06126478	      0.05255383	      0.05061060	      0.04810462	      0.01525851	      0.01651186	      0.06550154	      0.04489616	      0.10923006	      0.11015017	     -0.13328810	     -0.08883875	     -0.06329380	      0.00482013	      0.04319543	     -0.06115651	     -0.10135198	     -0.08096788	      0.00000079	     -0.32847694	      0.00000060	     -0.00000086	      8.89965924	     33.30468560	      1.96256995	     -1.60000159	      0.21781206	      3.81189131	     -8.89965924	    -33.30468560	     -1.96256995	      0.95630960	     -0.26235040	     -0.13713068	      3.38004664	     14.20951360	      0.14916918	      0.23101529	     -0.06257837	      1.36952433	     -3.38004664	    -14.20951360	     -0.14916918	     -0.24197565	      0.05040389	      0.03854102	     -8.62163819	   -733.28710151	    121.05536596	    -16.55330561	      0.50386128	      2.92791818	      8.62163819	    733.28710151	   -121.05536596	     65.31981690	      0.43073038	      6.20650732	    -71.47147800	   -700.92242913	   -152.59648819	     23.30152621	     -2.29510568	     -0.29670864	     71.47147800	    700.92242913	    152.59648819	    -79.49057496	      0.84932498	     33.25483592	     34.52908482	     14.60675335	    720.89258009	    743.26220644
      0.07037004	      0.00838253	      0.00389032	     13.40051819	    104.79631241	     97.73442366	      0.00000000	      0.00000000	      0.00000000	    -12.26939982	    -25.79810596	      0.00000000	      0.00000000	      0.00000000	      0.00000000	      0.00000000	      0.00000001	      0.00000000	      0.03443522	      0.02783874	      0.02695327	      0.02721385	      0.05624913	      0.06006065	      0.06120069	      0.05253109	      0.05056665	      0.04803452	      0.01525851	      0.01651186	      0.06550154	      0.04489616	      0.11061644	      0.11094113	     -0.13320439	     -0.08946626	     -0.06293618	      0.00446795	      0.04210416	     -0.06156280	     -0.10213230	     -0.08230709	      0.00000079	     -0.32847694	      0.00000060	     -0.00000086	      8.09977036	     33.39729458	      2.29535173	     -1.74227365	      0.19698328	      3.47337510	     -8.09977036	    -33.39729458	     -2.29535173	      0.97090560	     -0.24196055	     -0.09697614	      3.34994707	     13.96274729	      0.26656225	      0.17768240	     -0.06298908	      1.35633492	     -3.34994707	    -13.96274729	     -0.26656225	     -0.23461734	      0.04996634	      0.04132117	    -17.81917104	   -754.80207501	    115.80542104	    -16.70097714	      0.68418086	      2.96220257	     17.81917104	    754.80207501	   -115.80542104	     63.51622367	      0.20444014	     10.03323277	    -58.10169720	   -676.57641010	   -152.95439906	     22.73660552	     -2.01616500	      0.37040685	     58.10169720	    676.57641010	    152.95439906	    -79.15209058	      0.57820774	     27.42038189	     34.44204124	     14.36145928	    696.07937343	    763.84199337
      0.07155034	      0.00857118	      0.00399091	     13.79131698	    106.87547866	     98.80923662	      0.00000000	      0.00000000	      0.00000000	    -11.30925951	    -25.87132882	      0.00000000	      0.00000000	      0.00000000	      0.00000000	      0.00000000	      0.00000001	      0.00000000	      0.03447692	      0.02785690	      0.02695805	      0.02719646	      0.05627326	      0.06004131	      0.06113772	      0.05250949	      0.05052323	      0.04796450	      0.01525851	      0.01651186	      0.06550154	      0.04489616	      0.11196135	      0.11166599	     -0.13305074	     -0.09004820	     -0.06253419	      0.00414448	      0.04103185	     -0.06194861	     -0.10290329	     -0.08364498	      0.00000079	     -0.32847694	      0.00000060	     -0.00000086	      7.47871541	     33.45467882	      2.25822957	     -1.72687068	      0.18111604	      3.21032203	     -7.47871541	    -33.45467882	     -2.25822957	      0.96940909	     -0.22417202	     -0.06393515	      3.57174928	     14.07961411	      0.12629569	      0.23817848	     -0.06783397	      1.44771575	     -3.57174928	    -14.07961411	     -0.12629569	     -0.24119544	      0.05526302	      0.03903279	    -30.15435832	   -773.10193442	    118.63031318	    -17.13916651	      0.95130881	      2.86754474	     30.15435832	    773.10193442	   -118.63031318	     65.08587443	     -0.05279873	     15.17541603	    -48.69810064	   -655.27155329	   -146.37256815	     21.96138804	     -1.80496045	      0.87594044	     48.69810064	    655.27155329	    146.37256815	    -75.93468639	      0.41948028	     23.28338738	     34.35471321	     14.52614460	    673.18440436	    782.73177879
      0.07273064	      0.00876167	      0.00409222	     14.18664557	    108.38170983	     99.22828782	      0.00000000	      0.00000000	      0.00000000	     -9.82752912	    -25.37327404	      0.00000000	      0.00000000	      0.00000000	      0.00000000	      0.00000000	      0.00000001	      0.00000000	      0.03451860	      0.02787478	      0.02696469	      0.02718021	      0.05630029	      0.06002399	      0.06107616	      0.05248882	      0.05048015	      0.04789435	      0.01525851	      0.01651186	      0.06550154	      0.04489616	      0.11330554	      0.11237928	     -0.13283721	     -0.09059172	     -0.06208391	      0.00385478	      0.03998363	     -0.06231780	     -0.10366827	     -0.08498512	      0.00000079	     -0.32847694	      0.00000060	     -0.00000086	      6.65897028	     33.50695454	      2.57207570	     -1.86017064	      0.15997787	      2.86297227	     -6.65897028	    -33.50695454	     -2.57207570	      0.98215373	     -0.20351569	     -0.02265611	      3.53696238	     14.15844024	      0.10640405	      0.24613166	     -0.06619234	      1.43080532	     -3.53696238	    -14.15844024	     -0.10640405	     -0.24145888	      0.05392278	      0.04649133	    -37.70611236	   -790.23639999	    114.72370849	    -17.27129365	      1.10766263	      2.98601098	     37.70611236	    790.23639999	   -114.72370849	     63.76740950	     -0.24007638	     18.27189674	    -35.81116888	   -633.33633406	   -145.51298529	     21.40619630	     -1.53310413	      1.51106047	     35.81116888	    633.33633406	    145.51298529	    -75.13084603	      0.16422704	     17.66868554	     34.25891798	     14.59393212	    650.82361723	    799.41031271
      0.07391094	      0.00895246	      0.00419409	     14.58612801	    110.40695589	    100.19242883	      0.00000000	      0.00000000	      0.00000000	     -8.44151343	    -24.92998595	      0.00000000	      0.00000000	      0.00000000	      0.00000000	      0.00000000	      0.00000001	      0.00000000	      0.03455905	      0.02789111	      0.02697411	      0.02716607	      0.05633048	      0.06000904	      0.06101638	      0.05246920	      0.05043752	      0.04782425	      0.01525851	      0.01651186	      0.06550154	      0.04489616	      0.11461021	      0.11303091	     -0.13253410	     -0.09106482	     -0.06158095	      0.00360466	      0.03896576	     -0.06266836	     -0.10442519	     -0.08632436	      0.00000079	     -0.32847694	      0.00000060	     -0.00000086	      6.20940160	     33.66328662	      2.56346344	     -1.86069872	      0.14917556	      2.67294920	     -6.20940160	    -33.66328662	     -2.56346344	      0.98601066	     -0.19169244	      0.00411164	      3.62537085	     14.09383786	      0.01123856	      0.28377741	     -0.06844008	      1.46678442	     -3.62537085	    -14.09383786	     -0.01123856	     -0.24302839	      0.05675102	      0.04705557	    -47.79289297	   -802.05258744	    115.09785130	    -17.50042543	      1.32974993	      2.98258975	     47.79289297	    802.05258744	   -115.09785130	     64.16925369	     -0.46482427	     22.42322058	    -28.19932568	   -613.21215556	   -140.55990803	     20.72246509	     -1.36980104	      1.92796422	     28.19932568	    613.21215556	    140.55990803	    -72.62384340	      0.03680231	     14.29995543	     34.32702840	     14.55265287	    629.74712182	    811.67729364
